<svg xmlns="http://www.w3.org/2000/svg" viewBox="0 0 240 240">
  <defs>
    <radialGradient id="core" cx="0.5" cy="0.58" r="0.62" fx="0.5" fy="0.58">
      <stop offset="0"    stop-color="#ff9a6b"/>
      <stop offset="0.12" stop-color="#fb6f77"/>
      <stop offset="0.28" stop-color="#dd4fa4"/>
      <stop offset="0.44" stop-color="#9a4fe6"/>
      <stop offset="0.60" stop-color="#5359f2"/>
      <stop offset="0.78" stop-color="#2c3ad4"/>
      <stop offset="1"    stop-color="#141f8f"/>
    </radialGradient>
    <linearGradient id="vert" x1="0" y1="0" x2="0" y2="1">
      <stop offset="0"    stop-color="#9a9bff" stop-opacity="0.5"/>
      <stop offset="0.30" stop-color="#9a9bff" stop-opacity="0"/>
      <stop offset="0.80" stop-color="#000028" stop-opacity="0"/>
      <stop offset="1"    stop-color="#000028" stop-opacity="0.5"/>
    </linearGradient>
    <linearGradient id="edge" x1="0" y1="0" x2="1" y2="0">
      <stop offset="0"    stop-color="#000" stop-opacity="0.62"/>
      <stop offset="0.24" stop-color="#000" stop-opacity="0"/>
      <stop offset="0.76" stop-color="#000" stop-opacity="0"/>
      <stop offset="1"    stop-color="#000" stop-opacity="0.62"/>
    </linearGradient>
    <linearGradient id="inner" x1="0" y1="0" x2="0" y2="1">
      <stop offset="0" stop-color="#7676f6"/>
      <stop offset="0.5" stop-color="#2c2fa2"/>
      <stop offset="1" stop-color="#06082c"/>
    </linearGradient>
    <linearGradient id="rim" x1="0" y1="0" x2="0" y2="1">
      <stop offset="0" stop-color="#8f99ff"/>
      <stop offset="1" stop-color="#4855e6"/>
    </linearGradient>
    <radialGradient id="bloomg" cx="0.5" cy="0.5" r="0.5">
      <stop offset="0" stop-color="#ff5a6e" stop-opacity="0.55"/>
      <stop offset="0.5" stop-color="#7a4bff" stop-opacity="0.28"/>
      <stop offset="1" stop-color="#3344ff" stop-opacity="0"/>
    </radialGradient>
    <clipPath id="bodyClip"><path d="M70 50 L70 192 A50 14 0 0 0 170 192 L170 50 A50 14 0 0 0 70 50 Z"/></clipPath>
    <clipPath id="innerClip"><ellipse cx="120" cy="50" rx="45.5" ry="12"/></clipPath>
  </defs>

  <rect width="240" height="240" rx="52" fill="#050509"/>

  <ellipse cx="120" cy="127.0" rx="90" ry="105.0" fill="url(#bloomg)"/>

  <path d="M70 50 L70 192 A50 14 0 0 0 170 192 L170 50 A50 14 0 0 0 70 50 Z" fill="url(#core)"/>
  <path d="M70 50 L70 192 A50 14 0 0 0 170 192 L170 50 A50 14 0 0 0 70 50 Z" fill="url(#vert)"/>
  <g clip-path="url(#bodyClip)">
    <line x1="70.04" y1="36" x2="70.04" y2="206" stroke="#fff" stroke-opacity="0.100" stroke-width="0.50"/>
    <line x1="70.12" y1="36" x2="70.12" y2="206" stroke="#000" stroke-opacity="0.178" stroke-width="0.62"/>
    <line x1="70.35" y1="36" x2="70.35" y2="206" stroke="#fff" stroke-opacity="0.125" stroke-width="0.50"/>
    <line x1="70.58" y1="36" x2="70.58" y2="206" stroke="#000" stroke-opacity="0.198" stroke-width="0.62"/>
    <line x1="70.96" y1="36" x2="70.96" y2="206" stroke="#fff" stroke-opacity="0.149" stroke-width="0.50"/>
    <line x1="71.34" y1="36" x2="71.34" y2="206" stroke="#000" stroke-opacity="0.217" stroke-width="0.62"/>
    <line x1="71.88" y1="36" x2="71.88" y2="206" stroke="#fff" stroke-opacity="0.173" stroke-width="0.50"/>
    <line x1="72.41" y1="36" x2="72.41" y2="206" stroke="#000" stroke-opacity="0.236" stroke-width="0.62"/>
    <line x1="73.09" y1="36" x2="73.09" y2="206" stroke="#fff" stroke-opacity="0.196" stroke-width="0.52"/>
    <line x1="73.77" y1="36" x2="73.77" y2="206" stroke="#000" stroke-opacity="0.255" stroke-width="0.65"/>
    <line x1="74.59" y1="36" x2="74.59" y2="206" stroke="#fff" stroke-opacity="0.219" stroke-width="0.63"/>
    <line x1="75.41" y1="36" x2="75.41" y2="206" stroke="#000" stroke-opacity="0.274" stroke-width="0.78"/>
    <line x1="76.38" y1="36" x2="76.38" y2="206" stroke="#fff" stroke-opacity="0.240" stroke-width="0.73"/>
    <line x1="77.33" y1="36" x2="77.33" y2="206" stroke="#000" stroke-opacity="0.291" stroke-width="0.92"/>
    <line x1="78.43" y1="36" x2="78.43" y2="206" stroke="#fff" stroke-opacity="0.261" stroke-width="0.83"/>
    <line x1="79.52" y1="36" x2="79.52" y2="206" stroke="#000" stroke-opacity="0.308" stroke-width="1.04"/>
    <line x1="80.73" y1="36" x2="80.73" y2="206" stroke="#fff" stroke-opacity="0.281" stroke-width="0.93"/>
    <line x1="81.95" y1="36" x2="81.95" y2="206" stroke="#000" stroke-opacity="0.324" stroke-width="1.16"/>
    <line x1="83.28" y1="36" x2="83.28" y2="206" stroke="#fff" stroke-opacity="0.300" stroke-width="1.02"/>
    <line x1="84.62" y1="36" x2="84.62" y2="206" stroke="#000" stroke-opacity="0.339" stroke-width="1.27"/>
    <line x1="86.06" y1="36" x2="86.06" y2="206" stroke="#fff" stroke-opacity="0.317" stroke-width="1.10"/>
    <line x1="87.50" y1="36" x2="87.50" y2="206" stroke="#000" stroke-opacity="0.353" stroke-width="1.38"/>
    <line x1="89.05" y1="36" x2="89.05" y2="206" stroke="#fff" stroke-opacity="0.333" stroke-width="1.18"/>
    <line x1="90.59" y1="36" x2="90.59" y2="206" stroke="#000" stroke-opacity="0.366" stroke-width="1.47"/>
    <line x1="92.22" y1="36" x2="92.22" y2="206" stroke="#fff" stroke-opacity="0.347" stroke-width="1.25"/>
    <line x1="93.85" y1="36" x2="93.85" y2="206" stroke="#000" stroke-opacity="0.378" stroke-width="1.56"/>
    <line x1="95.57" y1="36" x2="95.57" y2="206" stroke="#fff" stroke-opacity="0.360" stroke-width="1.31"/>
    <line x1="97.28" y1="36" x2="97.28" y2="206" stroke="#000" stroke-opacity="0.388" stroke-width="1.64"/>
    <line x1="99.07" y1="36" x2="99.07" y2="206" stroke="#fff" stroke-opacity="0.371" stroke-width="1.36"/>
    <line x1="100.85" y1="36" x2="100.85" y2="206" stroke="#000" stroke-opacity="0.397" stroke-width="1.70"/>
    <line x1="102.69" y1="36" x2="102.69" y2="206" stroke="#fff" stroke-opacity="0.381" stroke-width="1.41"/>
    <line x1="104.54" y1="36" x2="104.54" y2="206" stroke="#000" stroke-opacity="0.404" stroke-width="1.76"/>
    <line x1="106.43" y1="36" x2="106.43" y2="206" stroke="#fff" stroke-opacity="0.388" stroke-width="1.44"/>
    <line x1="108.32" y1="36" x2="108.32" y2="206" stroke="#000" stroke-opacity="0.411" stroke-width="1.80"/>
    <line x1="110.25" y1="36" x2="110.25" y2="206" stroke="#fff" stroke-opacity="0.394" stroke-width="1.47"/>
    <line x1="112.17" y1="36" x2="112.17" y2="206" stroke="#000" stroke-opacity="0.415" stroke-width="1.84"/>
    <line x1="114.12" y1="36" x2="114.12" y2="206" stroke="#fff" stroke-opacity="0.398" stroke-width="1.49"/>
    <line x1="116.07" y1="36" x2="116.07" y2="206" stroke="#000" stroke-opacity="0.418" stroke-width="1.86"/>
    <line x1="118.04" y1="36" x2="118.04" y2="206" stroke="#fff" stroke-opacity="0.400" stroke-width="1.50"/>
    <line x1="120.00" y1="36" x2="120.00" y2="206" stroke="#000" stroke-opacity="0.420" stroke-width="1.87"/>
    <line x1="121.96" y1="36" x2="121.96" y2="206" stroke="#fff" stroke-opacity="0.400" stroke-width="1.50"/>
    <line x1="123.92" y1="36" x2="123.92" y2="206" stroke="#000" stroke-opacity="0.420" stroke-width="1.87"/>
    <line x1="125.88" y1="36" x2="125.88" y2="206" stroke="#fff" stroke-opacity="0.398" stroke-width="1.49"/>
    <line x1="127.83" y1="36" x2="127.83" y2="206" stroke="#000" stroke-opacity="0.418" stroke-width="1.86"/>
    <line x1="129.75" y1="36" x2="129.75" y2="206" stroke="#fff" stroke-opacity="0.394" stroke-width="1.47"/>
    <line x1="131.68" y1="36" x2="131.68" y2="206" stroke="#000" stroke-opacity="0.415" stroke-width="1.84"/>
    <line x1="133.57" y1="36" x2="133.57" y2="206" stroke="#fff" stroke-opacity="0.388" stroke-width="1.44"/>
    <line x1="135.46" y1="36" x2="135.46" y2="206" stroke="#000" stroke-opacity="0.411" stroke-width="1.80"/>
    <line x1="137.31" y1="36" x2="137.31" y2="206" stroke="#fff" stroke-opacity="0.381" stroke-width="1.41"/>
    <line x1="139.15" y1="36" x2="139.15" y2="206" stroke="#000" stroke-opacity="0.404" stroke-width="1.76"/>
    <line x1="140.93" y1="36" x2="140.93" y2="206" stroke="#fff" stroke-opacity="0.371" stroke-width="1.36"/>
    <line x1="142.72" y1="36" x2="142.72" y2="206" stroke="#000" stroke-opacity="0.397" stroke-width="1.70"/>
    <line x1="144.43" y1="36" x2="144.43" y2="206" stroke="#fff" stroke-opacity="0.360" stroke-width="1.31"/>
    <line x1="146.14" y1="36" x2="146.14" y2="206" stroke="#000" stroke-opacity="0.388" stroke-width="1.64"/>
    <line x1="147.78" y1="36" x2="147.78" y2="206" stroke="#fff" stroke-opacity="0.347" stroke-width="1.25"/>
    <line x1="149.41" y1="36" x2="149.41" y2="206" stroke="#000" stroke-opacity="0.378" stroke-width="1.56"/>
    <line x1="150.95" y1="36" x2="150.95" y2="206" stroke="#fff" stroke-opacity="0.333" stroke-width="1.18"/>
    <line x1="152.50" y1="36" x2="152.50" y2="206" stroke="#000" stroke-opacity="0.366" stroke-width="1.47"/>
    <line x1="153.94" y1="36" x2="153.94" y2="206" stroke="#fff" stroke-opacity="0.317" stroke-width="1.10"/>
    <line x1="155.38" y1="36" x2="155.38" y2="206" stroke="#000" stroke-opacity="0.353" stroke-width="1.38"/>
    <line x1="156.72" y1="36" x2="156.72" y2="206" stroke="#fff" stroke-opacity="0.300" stroke-width="1.02"/>
    <line x1="158.05" y1="36" x2="158.05" y2="206" stroke="#000" stroke-opacity="0.339" stroke-width="1.27"/>
    <line x1="159.27" y1="36" x2="159.27" y2="206" stroke="#fff" stroke-opacity="0.281" stroke-width="0.93"/>
    <line x1="160.48" y1="36" x2="160.48" y2="206" stroke="#000" stroke-opacity="0.324" stroke-width="1.16"/>
    <line x1="161.57" y1="36" x2="161.57" y2="206" stroke="#fff" stroke-opacity="0.261" stroke-width="0.83"/>
    <line x1="162.66" y1="36" x2="162.66" y2="206" stroke="#000" stroke-opacity="0.308" stroke-width="1.04"/>
    <line x1="163.62" y1="36" x2="163.62" y2="206" stroke="#fff" stroke-opacity="0.240" stroke-width="0.73"/>
    <line x1="164.58" y1="36" x2="164.58" y2="206" stroke="#000" stroke-opacity="0.291" stroke-width="0.92"/>
    <line x1="165.41" y1="36" x2="165.41" y2="206" stroke="#fff" stroke-opacity="0.219" stroke-width="0.63"/>
    <line x1="166.23" y1="36" x2="166.23" y2="206" stroke="#000" stroke-opacity="0.274" stroke-width="0.78"/>
    <line x1="166.91" y1="36" x2="166.91" y2="206" stroke="#fff" stroke-opacity="0.196" stroke-width="0.52"/>
    <line x1="167.59" y1="36" x2="167.59" y2="206" stroke="#000" stroke-opacity="0.255" stroke-width="0.65"/>
    <line x1="168.12" y1="36" x2="168.12" y2="206" stroke="#fff" stroke-opacity="0.173" stroke-width="0.50"/>
    <line x1="168.66" y1="36" x2="168.66" y2="206" stroke="#000" stroke-opacity="0.236" stroke-width="0.62"/>
    <line x1="169.04" y1="36" x2="169.04" y2="206" stroke="#fff" stroke-opacity="0.149" stroke-width="0.50"/>
    <line x1="169.42" y1="36" x2="169.42" y2="206" stroke="#000" stroke-opacity="0.217" stroke-width="0.62"/>
    <line x1="169.65" y1="36" x2="169.65" y2="206" stroke="#fff" stroke-opacity="0.125" stroke-width="0.50"/>
    <line x1="169.88" y1="36" x2="169.88" y2="206" stroke="#000" stroke-opacity="0.198" stroke-width="0.62"/>
    <line x1="169.96" y1="36" x2="169.96" y2="206" stroke="#fff" stroke-opacity="0.100" stroke-width="0.50"/>
    <line x1="170.04" y1="36" x2="170.04" y2="206" stroke="#000" stroke-opacity="0.178" stroke-width="0.62"/>
  </g>
  <path d="M70 50 L70 192 A50 14 0 0 0 170 192 L170 50 A50 14 0 0 0 70 50 Z" fill="url(#edge)"/>

  <ellipse cx="120" cy="50" rx="50" ry="14" fill="url(#rim)"/>
  <ellipse cx="120" cy="50" rx="45.5" ry="12" fill="url(#inner)"/>
  <g clip-path="url(#innerClip)" opacity="0.7">
    <line x1="74.54" y1="36" x2="74.54" y2="64" stroke="#fff" stroke-opacity="0.125" stroke-width="0.50"/>
    <line x1="74.61" y1="36" x2="74.61" y2="64" stroke="#000" stroke-opacity="0.191" stroke-width="0.62"/>
    <line x1="74.82" y1="36" x2="74.82" y2="64" stroke="#fff" stroke-opacity="0.156" stroke-width="0.50"/>
    <line x1="75.03" y1="36" x2="75.03" y2="64" stroke="#000" stroke-opacity="0.212" stroke-width="0.62"/>
    <line x1="75.37" y1="36" x2="75.37" y2="64" stroke="#fff" stroke-opacity="0.186" stroke-width="0.50"/>
    <line x1="75.72" y1="36" x2="75.72" y2="64" stroke="#000" stroke-opacity="0.233" stroke-width="0.62"/>
    <line x1="76.21" y1="36" x2="76.21" y2="64" stroke="#fff" stroke-opacity="0.216" stroke-width="0.50"/>
    <line x1="76.69" y1="36" x2="76.69" y2="64" stroke="#000" stroke-opacity="0.253" stroke-width="0.62"/>
    <line x1="77.31" y1="36" x2="77.31" y2="64" stroke="#fff" stroke-opacity="0.245" stroke-width="0.50"/>
    <line x1="77.93" y1="36" x2="77.93" y2="64" stroke="#000" stroke-opacity="0.273" stroke-width="0.62"/>
    <line x1="78.68" y1="36" x2="78.68" y2="64" stroke="#fff" stroke-opacity="0.273" stroke-width="0.50"/>
    <line x1="79.43" y1="36" x2="79.43" y2="64" stroke="#000" stroke-opacity="0.293" stroke-width="0.62"/>
    <line x1="80.30" y1="36" x2="80.30" y2="64" stroke="#fff" stroke-opacity="0.301" stroke-width="0.54"/>
    <line x1="81.17" y1="36" x2="81.17" y2="64" stroke="#000" stroke-opacity="0.312" stroke-width="0.67"/>
    <line x1="82.17" y1="36" x2="82.17" y2="64" stroke="#fff" stroke-opacity="0.327" stroke-width="0.61"/>
    <line x1="83.16" y1="36" x2="83.16" y2="64" stroke="#000" stroke-opacity="0.330" stroke-width="0.76"/>
    <line x1="84.27" y1="36" x2="84.27" y2="64" stroke="#fff" stroke-opacity="0.351" stroke-width="0.68"/>
    <line x1="85.37" y1="36" x2="85.37" y2="64" stroke="#000" stroke-opacity="0.347" stroke-width="0.85"/>
    <line x1="86.59" y1="36" x2="86.59" y2="64" stroke="#fff" stroke-opacity="0.375" stroke-width="0.75"/>
    <line x1="87.80" y1="36" x2="87.80" y2="64" stroke="#000" stroke-opacity="0.363" stroke-width="0.93"/>
    <line x1="89.11" y1="36" x2="89.11" y2="64" stroke="#fff" stroke-opacity="0.396" stroke-width="0.81"/>
    <line x1="90.43" y1="36" x2="90.43" y2="64" stroke="#000" stroke-opacity="0.378" stroke-width="1.01"/>
    <line x1="91.83" y1="36" x2="91.83" y2="64" stroke="#fff" stroke-opacity="0.416" stroke-width="0.86"/>
    <line x1="93.23" y1="36" x2="93.23" y2="64" stroke="#000" stroke-opacity="0.392" stroke-width="1.08"/>
    <line x1="94.72" y1="36" x2="94.72" y2="64" stroke="#fff" stroke-opacity="0.434" stroke-width="0.91"/>
    <line x1="96.21" y1="36" x2="96.21" y2="64" stroke="#000" stroke-opacity="0.404" stroke-width="1.14"/>
    <line x1="97.77" y1="36" x2="97.77" y2="64" stroke="#fff" stroke-opacity="0.450" stroke-width="0.96"/>
    <line x1="99.33" y1="36" x2="99.33" y2="64" stroke="#000" stroke-opacity="0.416" stroke-width="1.20"/>
    <line x1="100.95" y1="36" x2="100.95" y2="64" stroke="#fff" stroke-opacity="0.464" stroke-width="1.00"/>
    <line x1="102.57" y1="36" x2="102.57" y2="64" stroke="#000" stroke-opacity="0.425" stroke-width="1.25"/>
    <line x1="104.25" y1="36" x2="104.25" y2="64" stroke="#fff" stroke-opacity="0.476" stroke-width="1.03"/>
    <line x1="105.93" y1="36" x2="105.93" y2="64" stroke="#000" stroke-opacity="0.433" stroke-width="1.29"/>
    <line x1="107.65" y1="36" x2="107.65" y2="64" stroke="#fff" stroke-opacity="0.485" stroke-width="1.06"/>
    <line x1="109.37" y1="36" x2="109.37" y2="64" stroke="#000" stroke-opacity="0.440" stroke-width="1.32"/>
    <line x1="111.12" y1="36" x2="111.12" y2="64" stroke="#fff" stroke-opacity="0.493" stroke-width="1.08"/>
    <line x1="112.88" y1="36" x2="112.88" y2="64" stroke="#000" stroke-opacity="0.445" stroke-width="1.35"/>
    <line x1="114.65" y1="36" x2="114.65" y2="64" stroke="#fff" stroke-opacity="0.497" stroke-width="1.09"/>
    <line x1="116.43" y1="36" x2="116.43" y2="64" stroke="#000" stroke-opacity="0.448" stroke-width="1.37"/>
    <line x1="118.21" y1="36" x2="118.21" y2="64" stroke="#fff" stroke-opacity="0.500" stroke-width="1.10"/>
    <line x1="120.00" y1="36" x2="120.00" y2="64" stroke="#000" stroke-opacity="0.450" stroke-width="1.37"/>
    <line x1="121.79" y1="36" x2="121.79" y2="64" stroke="#fff" stroke-opacity="0.500" stroke-width="1.10"/>
    <line x1="123.57" y1="36" x2="123.57" y2="64" stroke="#000" stroke-opacity="0.450" stroke-width="1.37"/>
    <line x1="125.35" y1="36" x2="125.35" y2="64" stroke="#fff" stroke-opacity="0.497" stroke-width="1.09"/>
    <line x1="127.12" y1="36" x2="127.12" y2="64" stroke="#000" stroke-opacity="0.448" stroke-width="1.37"/>
    <line x1="128.88" y1="36" x2="128.88" y2="64" stroke="#fff" stroke-opacity="0.493" stroke-width="1.08"/>
    <line x1="130.63" y1="36" x2="130.63" y2="64" stroke="#000" stroke-opacity="0.445" stroke-width="1.35"/>
    <line x1="132.35" y1="36" x2="132.35" y2="64" stroke="#fff" stroke-opacity="0.485" stroke-width="1.06"/>
    <line x1="134.07" y1="36" x2="134.07" y2="64" stroke="#000" stroke-opacity="0.440" stroke-width="1.32"/>
    <line x1="135.75" y1="36" x2="135.75" y2="64" stroke="#fff" stroke-opacity="0.476" stroke-width="1.03"/>
    <line x1="137.42" y1="36" x2="137.42" y2="64" stroke="#000" stroke-opacity="0.433" stroke-width="1.29"/>
    <line x1="139.05" y1="36" x2="139.05" y2="64" stroke="#fff" stroke-opacity="0.464" stroke-width="1.00"/>
    <line x1="140.67" y1="36" x2="140.67" y2="64" stroke="#000" stroke-opacity="0.425" stroke-width="1.25"/>
    <line x1="142.23" y1="36" x2="142.23" y2="64" stroke="#fff" stroke-opacity="0.450" stroke-width="0.96"/>
    <line x1="143.79" y1="36" x2="143.79" y2="64" stroke="#000" stroke-opacity="0.416" stroke-width="1.20"/>
    <line x1="145.28" y1="36" x2="145.28" y2="64" stroke="#fff" stroke-opacity="0.434" stroke-width="0.91"/>
    <line x1="146.76" y1="36" x2="146.76" y2="64" stroke="#000" stroke-opacity="0.404" stroke-width="1.14"/>
    <line x1="148.17" y1="36" x2="148.17" y2="64" stroke="#fff" stroke-opacity="0.416" stroke-width="0.86"/>
    <line x1="149.57" y1="36" x2="149.57" y2="64" stroke="#000" stroke-opacity="0.392" stroke-width="1.08"/>
    <line x1="150.89" y1="36" x2="150.89" y2="64" stroke="#fff" stroke-opacity="0.396" stroke-width="0.81"/>
    <line x1="152.20" y1="36" x2="152.20" y2="64" stroke="#000" stroke-opacity="0.378" stroke-width="1.01"/>
    <line x1="153.41" y1="36" x2="153.41" y2="64" stroke="#fff" stroke-opacity="0.375" stroke-width="0.75"/>
    <line x1="154.62" y1="36" x2="154.62" y2="64" stroke="#000" stroke-opacity="0.363" stroke-width="0.93"/>
    <line x1="155.73" y1="36" x2="155.73" y2="64" stroke="#fff" stroke-opacity="0.351" stroke-width="0.68"/>
    <line x1="156.84" y1="36" x2="156.84" y2="64" stroke="#000" stroke-opacity="0.347" stroke-width="0.85"/>
    <line x1="157.83" y1="36" x2="157.83" y2="64" stroke="#fff" stroke-opacity="0.327" stroke-width="0.61"/>
    <line x1="158.82" y1="36" x2="158.82" y2="64" stroke="#000" stroke-opacity="0.330" stroke-width="0.76"/>
    <line x1="159.70" y1="36" x2="159.70" y2="64" stroke="#fff" stroke-opacity="0.301" stroke-width="0.54"/>
    <line x1="160.57" y1="36" x2="160.57" y2="64" stroke="#000" stroke-opacity="0.312" stroke-width="0.67"/>
    <line x1="161.32" y1="36" x2="161.32" y2="64" stroke="#fff" stroke-opacity="0.273" stroke-width="0.50"/>
    <line x1="162.07" y1="36" x2="162.07" y2="64" stroke="#000" stroke-opacity="0.293" stroke-width="0.62"/>
    <line x1="162.69" y1="36" x2="162.69" y2="64" stroke="#fff" stroke-opacity="0.245" stroke-width="0.50"/>
    <line x1="163.31" y1="36" x2="163.31" y2="64" stroke="#000" stroke-opacity="0.273" stroke-width="0.62"/>
    <line x1="163.79" y1="36" x2="163.79" y2="64" stroke="#fff" stroke-opacity="0.216" stroke-width="0.50"/>
    <line x1="164.28" y1="36" x2="164.28" y2="64" stroke="#000" stroke-opacity="0.253" stroke-width="0.62"/>
    <line x1="164.63" y1="36" x2="164.63" y2="64" stroke="#fff" stroke-opacity="0.186" stroke-width="0.50"/>
    <line x1="164.97" y1="36" x2="164.97" y2="64" stroke="#000" stroke-opacity="0.233" stroke-width="0.62"/>
    <line x1="165.18" y1="36" x2="165.18" y2="64" stroke="#fff" stroke-opacity="0.156" stroke-width="0.50"/>
    <line x1="165.39" y1="36" x2="165.39" y2="64" stroke="#000" stroke-opacity="0.212" stroke-width="0.62"/>
    <line x1="165.46" y1="36" x2="165.46" y2="64" stroke="#fff" stroke-opacity="0.125" stroke-width="0.50"/>
    <line x1="165.54" y1="36" x2="165.54" y2="64" stroke="#000" stroke-opacity="0.191" stroke-width="0.62"/>
  </g>
  <path d="M70 50 A50 14 0 0 0 170 50" fill="none" stroke="#c3c9ff" stroke-opacity="0.9" stroke-width="1.5"/>
</svg>
